<svg width="48" height="49" viewBox="0 0 48 49" fill="none" xmlns="http://www.w3.org/2000/svg">
<g clip-path="url(#clip0_1_128)">
<path d="M24 48.7642C37.2548 48.7642 48 38.0088 48 24.7412C48 11.4737 37.2548 0.718216 24 0.718216C10.7452 0.718216 0 11.4737 0 24.7412C0 38.0088 10.7452 48.7642 24 48.7642Z" fill="#4D76A1"/>
<path fill-rule="evenodd" clip-rule="evenodd" d="M23.0936 35.2775H24.9773C24.9773 35.2775 25.5463 35.2149 25.8368 34.9015C26.1041 34.6137 26.0956 34.0733 26.0956 34.0733C26.0956 34.0733 26.0588 31.5433 27.2319 31.1707C28.3883 30.8037 29.8733 33.6159 31.4472 34.6972C32.6374 35.5156 33.5418 35.3361 33.5418 35.3361L37.7503 35.2775C37.7503 35.2775 39.9519 35.1417 38.908 33.4091C38.8225 33.2673 38.3001 32.1274 35.7789 29.7849C33.1401 27.3333 33.4935 27.7299 36.6722 23.4891C38.6081 20.9064 39.382 19.3296 39.1403 18.6543C38.9097 18.0111 37.4859 18.1811 37.4859 18.1811L32.7474 18.2107C32.7474 18.2107 32.3961 18.1627 32.1356 18.3186C31.881 18.4715 31.7172 18.8278 31.7172 18.8278C31.7172 18.8278 30.9672 20.8263 29.967 22.526C27.8569 26.1124 27.0133 26.3017 26.6684 26.079C25.8663 25.56 26.0665 23.994 26.0665 22.8814C26.0665 19.4059 26.5931 17.9567 25.041 17.5816C24.5259 17.457 24.1469 17.3748 22.8296 17.3615C21.1388 17.3439 19.7078 17.3666 18.8975 17.764C18.3584 18.0282 17.9426 18.6171 18.1958 18.6509C18.509 18.6929 19.2183 18.8423 19.5944 19.3549C20.08 20.0161 20.0629 21.5012 20.0629 21.5012C20.0629 21.5012 20.3418 25.5925 19.4113 26.1009C18.7725 26.4494 17.8964 25.7377 16.0152 22.484C15.0513 20.8173 14.3236 18.9751 14.3236 18.9751C14.3236 18.9751 14.1833 18.6308 13.933 18.4466C13.6293 18.2235 13.2049 18.1524 13.2049 18.1524L8.70202 18.182C8.70202 18.182 8.02606 18.2008 7.77793 18.495C7.55717 18.7567 7.76039 19.2979 7.76039 19.2979C7.76039 19.2979 11.2856 27.5534 15.2772 31.7137C18.9373 35.528 23.0936 35.2775 23.0936 35.2775Z" fill="white"/>
</g>
<defs>
<clipPath id="clip0_1_128">
<rect width="48" height="48.046" fill="white" transform="translate(0 0.718216)"/>
</clipPath>
</defs>
</svg>
