<svg width="48" height="49" viewBox="0 0 48 49" fill="none" xmlns="http://www.w3.org/2000/svg">
<g clip-path="url(#clip0_1_18)">
<path d="M23.9869 0.730847C10.7399 0.73366 0.00336543 11.4851 0.00617627 24.7448C0.00711322 29.3362 1.32343 33.831 3.79884 37.6964L0.0670777 47.388C-0.131648 47.9034 0.1247 48.4826 0.639645 48.6815C0.754796 48.7259 0.877067 48.7487 1.00046 48.7485C1.11496 48.7491 1.22861 48.7295 1.33626 48.6905L11.3304 45.1192C22.5749 52.1291 37.3675 48.6875 44.3706 37.4321C51.3737 26.1768 47.9355 11.37 36.691 4.36021C32.8793 1.9839 28.4776 0.726439 23.9869 0.730847Z" fill="#55CD6C"/>
<path d="M35.4222 28.8432C35.4222 28.8432 32.9737 27.6428 31.4406 26.8425C29.7056 25.9482 27.6668 27.6228 26.7074 28.5752C25.2142 28.001 23.8504 27.1344 22.6958 26.0262C21.5884 24.8707 20.7226 23.5055 20.1492 22.0107C21.1007 21.0484 22.7697 19.0096 21.8802 17.273C21.0907 15.7365 19.8815 13.2876 19.8815 13.2856C19.7118 12.9485 19.3671 12.7357 18.99 12.7354H16.9912C14.0803 13.2386 11.9638 15.7809 11.9942 18.7376C11.9942 21.8787 15.7499 27.9129 18.2825 30.4498C20.815 32.9867 26.8434 36.7441 29.9835 36.7441C32.9373 36.7745 35.4772 34.6559 35.98 31.7423V29.7416C35.9802 29.3601 35.764 29.0117 35.4222 28.8432Z" fill="#FAFAFA"/>
</g>
<defs>
<clipPath id="clip0_1_18">
<rect width="48" height="48.046" fill="white" transform="translate(0 0.718262)"/>
</clipPath>
</defs>
</svg>
